<?xml version="1.0" encoding="UTF-8"?>
<svg width="30px" height="30px" viewBox="0 0 30 30" version="1.1" xmlns="http://www.w3.org/2000/svg" xmlns:xlink="http://www.w3.org/1999/xlink">
    <!-- Generator: Sketch 52.2 (67145) - http://www.bohemiancoding.com/sketch -->
    <title>icons/align-left-selected</title>
    <desc>Created with Sketch.</desc>
    <defs>
        <path d="M17.5714286,6.71875 L17.5714286,8.28125 C17.5714286,8.62644531 17.2836295,8.90625 16.9285714,8.90625 L6.64285714,8.90625 C6.28779911,8.90625 6,8.62644531 6,8.28125 L6,6.71875 C6,6.37355469 6.28779911,6.09375 6.64285714,6.09375 L16.9285714,6.09375 C17.2836295,6.09375 17.5714286,6.37355469 17.5714286,6.71875 Z M6,11.71875 L6,13.28125 C6,13.6264453 6.28779911,13.90625 6.64285714,13.90625 L23.3571429,13.90625 C23.7122009,13.90625 24,13.6264453 24,13.28125 L24,11.71875 C24,11.3735547 23.7122009,11.09375 23.3571429,11.09375 L6.64285714,11.09375 C6.28779911,11.09375 6,11.3735547 6,11.71875 Z M6.64285714,23.90625 L23.3571429,23.90625 C23.7122009,23.90625 24,23.6264453 24,23.28125 L24,21.71875 C24,21.3735547 23.7122009,21.09375 23.3571429,21.09375 L6.64285714,21.09375 C6.28779911,21.09375 6,21.3735547 6,21.71875 L6,23.28125 C6,23.6264453 6.28779911,23.90625 6.64285714,23.90625 Z M16.9285714,16.09375 L6.64285714,16.09375 C6.28779911,16.09375 6,16.3735547 6,16.71875 L6,18.28125 C6,18.6264453 6.28779911,18.90625 6.64285714,18.90625 L16.9285714,18.90625 C17.2836295,18.90625 17.5714286,18.6264453 17.5714286,18.28125 L17.5714286,16.71875 C17.5714286,16.3735547 17.2836295,16.09375 16.9285714,16.09375 Z" id="path-1"></path>
    </defs>
    <g id="Page-1" stroke="none" stroke-width="1" fill="none" fill-rule="evenodd">
        <g id="Interface-main1" transform="translate(-273.000000, -706.000000)">
            <g id="Components-tab" transform="translate(0.000000, 59.000000)">
                <g id="Banners" transform="translate(0.000000, 582.000000)">
                    <g id="filter" transform="translate(101.000000, 65.000000)">
                        <g id="icons/align-left-selected" transform="translate(172.000000, 0.000000)">
                            <rect id="Rectangle" fill="#C0C0C0" x="0" y="0" width="30" height="30" rx="4"></rect>
                            <mask id="mask-2" fill="white">
                                <use xlink:href="#path-1"></use>
                            </mask>
                            <use id="align-left" fill="#343434" fill-rule="nonzero" xlink:href="#path-1"></use>
                        </g>
                    </g>
                </g>
            </g>
        </g>
    </g>
</svg>