<?xml version="1.0" encoding="UTF-8"?>
<svg width="30px" height="30px" viewBox="0 0 30 30" version="1.1" xmlns="http://www.w3.org/2000/svg" xmlns:xlink="http://www.w3.org/1999/xlink">
    <!-- Generator: Sketch 52.2 (67145) - http://www.bohemiancoding.com/sketch -->
    <title>align-left</title>
    <desc>Created with Sketch.</desc>
    <defs>
        <path d="M11.5714286,0.71875 L11.5714286,2.28125 C11.5714286,2.62644531 11.2836295,2.90625 10.9285714,2.90625 L0.642857143,2.90625 C0.287799107,2.90625 0,2.62644531 0,2.28125 L0,0.71875 C0,0.373554687 0.287799107,0.09375 0.642857143,0.09375 L10.9285714,0.09375 C11.2836295,0.09375 11.5714286,0.373554687 11.5714286,0.71875 Z M0,5.71875 L0,7.28125 C0,7.62644531 0.287799107,7.90625 0.642857143,7.90625 L17.3571429,7.90625 C17.7122009,7.90625 18,7.62644531 18,7.28125 L18,5.71875 C18,5.37355469 17.7122009,5.09375 17.3571429,5.09375 L0.642857143,5.09375 C0.287799107,5.09375 0,5.37355469 0,5.71875 Z M0.642857143,17.90625 L17.3571429,17.90625 C17.7122009,17.90625 18,17.6264453 18,17.28125 L18,15.71875 C18,15.3735547 17.7122009,15.09375 17.3571429,15.09375 L0.642857143,15.09375 C0.287799107,15.09375 0,15.3735547 0,15.71875 L0,17.28125 C0,17.6264453 0.287799107,17.90625 0.642857143,17.90625 Z M10.9285714,10.09375 L0.642857143,10.09375 C0.287799107,10.09375 0,10.3735547 0,10.71875 L0,12.28125 C0,12.6264453 0.287799107,12.90625 0.642857143,12.90625 L10.9285714,12.90625 C11.2836295,12.90625 11.5714286,12.6264453 11.5714286,12.28125 L11.5714286,10.71875 C11.5714286,10.3735547 11.2836295,10.09375 10.9285714,10.09375 Z" id="path-1"></path>
    </defs>
    <g id="align-left" stroke="none" stroke-width="1" fill="none" fill-rule="evenodd">
        <g transform="translate(6.000000, 6.000000)">
            <mask id="mask-2" fill="white">
                <use xlink:href="#path-1"></use>
            </mask>
            <use fill="#C0C0C0" fill-rule="nonzero" xlink:href="#path-1"></use>
        </g>
    </g>
</svg>