<?xml version="1.0" encoding="UTF-8"?>
<svg width="30px" height="30px" viewBox="0 0 30 30" version="1.1" xmlns="http://www.w3.org/2000/svg" xmlns:xlink="http://www.w3.org/1999/xlink">
    <!-- Generator: Sketch 52.2 (67145) - http://www.bohemiancoding.com/sketch -->
    <title>icons/align-center-selected</title>
    <desc>Created with Sketch.</desc>
    <defs>
        <path d="M20.1428571,6.71875 L20.1428571,8.28125 C20.1428571,8.62644531 19.855058,8.90625 19.5,8.90625 L10.5,8.90625 C10.144942,8.90625 9.85714286,8.62644531 9.85714286,8.28125 L9.85714286,6.71875 C9.85714286,6.37355469 10.144942,6.09375 10.5,6.09375 L19.5,6.09375 C19.855058,6.09375 20.1428571,6.37355469 20.1428571,6.71875 Z M6.64285714,13.90625 L23.3571429,13.90625 C23.7122009,13.90625 24,13.6264453 24,13.28125 L24,11.71875 C24,11.3735547 23.7122009,11.09375 23.3571429,11.09375 L6.64285714,11.09375 C6.28779911,11.09375 6,11.3735547 6,11.71875 L6,13.28125 C6,13.6264453 6.28779911,13.90625 6.64285714,13.90625 Z M6.64285714,23.90625 L23.3571429,23.90625 C23.7122009,23.90625 24,23.6264453 24,23.28125 L24,21.71875 C24,21.3735547 23.7122009,21.09375 23.3571429,21.09375 L6.64285714,21.09375 C6.28779911,21.09375 6,21.3735547 6,21.71875 L6,23.28125 C6,23.6264453 6.28779911,23.90625 6.64285714,23.90625 Z M19.5,16.09375 L10.5,16.09375 C10.144942,16.09375 9.85714286,16.3735547 9.85714286,16.71875 L9.85714286,18.28125 C9.85714286,18.6264453 10.144942,18.90625 10.5,18.90625 L19.5,18.90625 C19.855058,18.90625 20.1428571,18.6264453 20.1428571,18.28125 L20.1428571,16.71875 C20.1428571,16.3735547 19.855058,16.09375 19.5,16.09375 Z" id="path-1"></path>
    </defs>
    <g id="Page-1" stroke="none" stroke-width="1" fill="none" fill-rule="evenodd">
        <g id="Interface-main1" transform="translate(-235.000000, -706.000000)">
            <g id="Components-tab" transform="translate(0.000000, 59.000000)">
                <g id="Banners" transform="translate(0.000000, 582.000000)">
                    <g id="filter" transform="translate(101.000000, 65.000000)">
                        <g id="icons/align-center-selected" transform="translate(134.000000, 0.000000)">
                            <rect id="Rectangle" fill="#C0C0C0" x="0" y="0" width="30" height="30" rx="4"></rect>
                            <mask id="mask-2" fill="white">
                                <use xlink:href="#path-1"></use>
                            </mask>
                            <use id="align-center" fill="#343434" fill-rule="nonzero" xlink:href="#path-1"></use>
                        </g>
                    </g>
                </g>
            </g>
        </g>
    </g>
</svg>